<?xml version="1.0" encoding="utf-8"?>
<!-- Generator: Adobe Illustrator 25.4.1, SVG Export Plug-In . SVG Version: 6.00 Build 0)  -->
<svg version="1.1" id="Layer_1" xmlns="http://www.w3.org/2000/svg" xmlns:xlink="http://www.w3.org/1999/xlink" x="0px" y="0px"
	 viewBox="0 0 595.3 687.5" style="enable-background:new 0 0 595.3 687.5;" xml:space="preserve">
<style type="text/css">
	.st0{fill:#419C6B;}
</style>
<path class="st0" d="M13.4,277.6l55.4-55.2L183,336.8c0,0,48.5,46.1,105.9-5.3c1.1-2.7,1.1-2.7,1.1-2.7L180.6,221.1l111.8-110.7
	l113,110.9L294.4,333c0,0-105.1,105.1-221.3,4.3C37.6,301.8,13.4,277.6,13.4,277.6z"/>
<path class="st0" d="M589.7,409.6l-55.5,55.2L420.1,350.4c0,0-48.5-46.1-105.9,5.3c-1.1,2.7-1.1,2.7-1.1,2.7l109.3,107.7
	L310.7,576.8l-113-110.9l110.9-111.7c0,0,105.1-105.1,221.3-4.3C565.4,385.4,589.7,409.6,589.7,409.6z"/>
<polygon class="st0" points="236.9,55.2 292.4,0 347.8,55.2 292.4,110.9 "/>
<polygon class="st0" points="255.3,631.8 310.7,576.5 366.1,631.8 310.7,687.5 "/>
</svg>
