<?xml version="1.0" encoding="utf-8"?>
<!-- Generator: Adobe Illustrator 25.4.1, SVG Export Plug-In . SVG Version: 6.00 Build 0)  -->
<svg version="1.1" id="Layer_1" xmlns="http://www.w3.org/2000/svg" xmlns:xlink="http://www.w3.org/1999/xlink" x="0px" y="0px"
	 viewBox="0 0 442 430" style="enable-background:new 0 0 442 430;" xml:space="preserve">
<style type="text/css">
	.st0{fill:#419C6B;stroke:#419C6B;stroke-width:5;stroke-miterlimit:10;}
	.st1{display:none;fill:#419C6B;stroke:#419C6B;stroke-width:2;stroke-miterlimit:10;}
</style>
<polygon class="st0" points="165.4,68.6 229.6,6.8 293.1,70.3 293.1,134.5 261.1,134.5 260.7,76.9 231,47.4 198.7,77.5 197.8,293.6 
	217.7,314.2 194,337.5 165.4,306.8 "/>
<polygon class="st0" points="204.9,144.1 351.3,144.1 436.3,230.6 373.4,319 372.7,425.5 284.6,425.5 230.8,372.4 253.1,349.4 
	298.2,393.1 311.5,392.9 342.8,392.4 342.8,304.5 396,233.3 340.5,176.3 204.9,175.2 "/>
<polygon class="st0" points="158.6,143.2 90.7,143.4 4.2,228.9 71.8,319 72,425.3 166.4,425.3 294.6,295.2 294.1,183.7 261.8,183.7 
	261.6,281.6 150.8,392.4 101.9,392.3 101.6,303.4 50.2,232.5 107,175.6 158.6,175.5 "/>
<path class="st1" d="M9.7,505.7c0,1.3-0.1,2.6-0.3,3.9c-0.2,1.2-0.5,2.5-0.8,3.7c-0.3,1.1-0.6,2.2-1,3.2c-0.4,1-0.7,1.8-1.1,2.5
	c-0.8,0.8-1.7,1.6-2.7,2.2c-1.3,0.8-2.7,1.5-4.1,2.1c-1.7,0.7-3.4,1.2-5.2,1.6c-2,0.4-4,0.6-6,0.6c-2.3,0.1-4.6-0.3-6.7-1.2
	c-1.6-0.7-3.1-1.7-4.2-3.1c-1-1.3-1.8-2.9-2.2-4.5c-0.4-1.8-0.6-3.5-0.6-5.3c0-1.7,0.1-3.4,0.5-5c0.3-1.4,0.6-2.7,1.1-4
	c0.4-1,0.8-2,1.3-2.9c0.4-0.8,0.7-1.3,0.9-1.7l1,0.3c-0.4,1.7-0.8,3.2-1,4.5c-0.2,1.4-0.3,2.9-0.3,4.3c0,1.3,0.2,2.5,0.7,3.7
	c0.5,1.1,1.2,2.2,2.1,3c1,0.9,2.2,1.6,3.5,2c1.6,0.5,3.3,0.8,4.9,0.7c1.6,0,3.1-0.1,4.7-0.3c1.6-0.2,3.1-0.6,4.6-1
	c1.4-0.4,2.7-0.9,4-1.6c1.1-0.5,2-1.2,2.9-2.1c0-1.1-0.2-2.1-0.5-3.1c-0.3-1-0.7-2-1.2-2.9c-0.5-0.9-1-1.8-1.7-2.6
	c-0.6-0.8-1.2-1.6-1.8-2.3l4.2-6.8c0.5,0.6,1,1.4,1.6,2.2c0.6,0.9,1.2,1.9,1.7,2.9c0.5,1.1,0.9,2.2,1.3,3.4
	C9.5,503.2,9.7,504.4,9.7,505.7z M-4.8,488.1l-3.4,4.9l-5-4.5l3.4-4.9L-4.8,488.1z"/>
<path class="st1" d="M25.3,508.9c-1.4,0-2.7-0.1-4.1-0.3c-1-0.2-2.1-0.6-2.9-1.1c-0.8-0.6-1.5-1.4-2-2.3c-0.6-1.2-1-2.4-1.2-3.7
	c-0.1-0.5-0.2-0.9-0.2-1.5s-0.1-1.1-0.1-1.6s0-1.1,0-1.5s0-0.9,0-1.2c0-3.1-0.1-5.9-0.2-8.4s-0.3-4.7-0.5-6.8s-0.5-3.8-0.8-5.4
	s-0.7-3.1-1.1-4.5l5.7-7.5c0.1,1.2,0.2,2.8,0.3,4.8s0.2,4.2,0.3,6.7s0.2,5.1,0.2,7.9s0.1,5.6,0.1,8.5c0,0.8,0,1.6,0,2.4
	s0.1,1.5,0.1,2.1c0,1.5,0.7,2.8,1.8,3.8c1.3,0.8,2.9,1.2,4.5,1.1L25.3,508.9z"/>
<path class="st1" d="M54.6,508.9h-1.8h-1.7c-0.5,0-1,0-1.6,0.1c-0.5,0-1,0.3-1.4,0.6c-0.3,0.3-0.5,0.7-0.5,1.2
	c0,0.7,0.1,1.3,0.4,1.9c0.6,1,1.4,1.8,2.5,2.3c0.4,0.2,0.9,0.4,1.3,0.5c-0.2,0.7-0.5,1.4-0.8,2.2s-0.6,1.6-1,2.4s-0.7,1.6-1,2.3
	s-0.7,1.4-0.9,1.9c-1.4-0.4-2.8-0.8-4.1-1.4c-1.7-0.7-3.2-1.7-4.6-2.8c-1.6-1.3-2.9-2.8-4.1-4.6c-1.3-2-2-4.3-2.3-6.7
	c-0.6,0-1.4,0-2.3,0h-2.6c-0.9,0-1.7-0.4-2.3-1c-0.8-0.9-1.1-2-1-3.2c-0.1-1.2,0.2-2.4,1-3.4c0.6-0.7,1.4-1,2.3-1.1h2.4
	c0.9,0,1.7,0,2.3,0c0.2-1.9,0.5-3.7,1.1-5.5c0.5-1.6,1.1-3.2,1.9-4.8c0.7-1.4,1.5-2.8,2.3-4.1c0.8-1.2,1.6-2.3,2.4-3.2
	c0.8,0.8,1.4,1.6,2,2.5c0.6,1,1.2,2,1.6,3c0.5,1,0.8,2.1,1.1,3.1c0.3,1,0.4,2,0.4,3c0,5.7-1.8,9.9-5.6,12.7c-0.5,0.4-1.1,0.7-1.7,1
	c-0.6,0.3-1.2,0.5-1.8,0.6c0.3,0.9,0.7,1.7,1.3,2.3c0.6,0.7,1.3,1.3,2,1.8c0.7,0.5,1.6,1,2.4,1.3c0.8,0.3,1.6,0.6,2.5,0.7
	c-0.3-0.7-0.5-1.5-0.7-2.3c-0.1-0.7-0.2-1.4-0.2-2.1c-0.1-2,0.3-4,1.1-5.8c0.6-1.3,1.5-2.4,2.7-3.3c0.4-0.2,0.7-0.4,1.1-0.5
	c0.4-0.1,0.9-0.2,1.3-0.3c0.5-0.1,1.1-0.1,1.8-0.1s1.4,0,2.3,0L54.6,508.9z M42.6,497.3c0-0.5-0.1-0.9-0.3-1.3
	c-0.2-0.5-0.5-0.9-0.8-1.3c-0.3-0.4-0.6-0.8-1-1.1c-0.4-0.3-0.7-0.6-1-0.9c-0.7,1-1.3,2-1.7,3.1c-0.6,1.4-1,2.8-1.2,4.3
	c0.7,0,1.3-0.1,2-0.3c0.7-0.1,1.4-0.3,2-0.6c0.5-0.2,1-0.5,1.4-0.9C42.4,498.1,42.6,497.7,42.6,497.3L42.6,497.3z"/>
<path class="st1" d="M82.6,508.9c-1.7,0-3.3,0-4.8,0c-1.3,0-2.6-0.1-3.9-0.3l-2.9-0.5c-1.1-0.2-2.1-0.7-3-1.4
	c-1.4,0.8-3,1.4-4.7,1.8c-1.9,0.3-3.8,0.5-5.7,0.5c-1,0-1.9-0.4-2.4-1.2c-1.3-1.9-1.3-4.3,0-6.2c0.5-0.8,1.4-1.2,2.4-1.2h1.2
	l1.5-0.1c0.5,0,1-0.1,1.4-0.2c0.4-0.1,0.8-0.2,1.2-0.3c-0.1-0.3-0.1-0.7-0.2-1c-0.1-0.4-0.1-0.7-0.1-1.1c0-1.8,0.4-3.6,1.1-5.3
	c0.7-1.7,1.6-3.2,2.8-4.6c1-1.2,2.2-2.3,3.5-3.2c0.9-0.7,2.1-1.1,3.2-1.2c1,0,2,0.2,2.8,0.8c0.8,0.5,1.5,1.2,2,2
	c0.6,0.9,1,1.8,1.2,2.8c0.3,1.1,0.4,2.2,0.4,3.3c0,1.3-0.2,2.6-0.5,3.8c-0.4,1.4-1,2.8-1.9,3.9c0.3,0.1,0.6,0.1,0.9,0.2l1.2,0.2
	l1.5,0.1h1.7L82.6,508.9z M70.5,497.6c0.4-0.1,0.9-0.3,1.5-0.4s1-0.3,1.6-0.6s1-0.4,1.5-0.7c0.4-0.2,0.8-0.4,1.2-0.7
	c-0.1-0.6-0.3-1.1-0.6-1.6c-0.3-0.5-0.6-1-1-1.5c-0.4-0.4-0.8-0.8-1.4-1c-0.5-0.2-1-0.4-1.6-0.4c-0.5,0-0.9,0.1-1.3,0.2
	c-0.5,0.2-1,0.4-1.4,0.6c-0.4,0.2-0.9,0.5-1.2,0.9c-0.3,0.3-0.6,0.6-0.9,1c0.1,0.9,0.5,1.7,1.2,2.3
	C68.6,496.7,69.5,497.3,70.5,497.6z M75.8,471.6l-3.4,4.9l-5-4.5l3.4-4.9L75.8,471.6z"/>
<path class="st1" d="M95.9,503.9h-0.5c-0.2,0.5-0.5,1.1-0.8,1.6c-0.2,0.4-0.5,0.8-0.8,1.2c-1.1,0.9-2.4,1.6-3.7,1.9
	c-0.7,0.1-1.4,0.2-2.1,0.3c-0.7,0-1.5,0.1-2.4,0.1c-0.5,0-1-0.1-1.4-0.3c-0.4-0.2-0.8-0.6-1.1-1c-0.6-0.9-0.9-1.9-0.9-2.9
	c0-0.5,0.1-1.1,0.2-1.6c0.1-0.5,0.4-1,0.7-1.4c0.3-0.4,0.6-0.7,1.1-1c0.4-0.3,0.9-0.4,1.4-0.4c1.3,0,2.7-0.1,4-0.4
	c1-0.1,1.9-0.5,2.7-1.1c0.7-0.6,1.4-1.4,1.9-2.2c0.5-0.8,0.9-1.6,1.2-2.5h1.2c0.1,1.5,0.7,3,1.6,4.2c1,1,2.3,1.6,3.7,1.8
	c1.7-2,3.5-3.9,5.4-5.7c1.7-1.7,3.6-3.3,5.6-4.7c1.6-1.2,3.4-2.3,5.3-3.2c1.5-0.7,3-1.1,4.6-1.2c1.2,0,2.3,0.2,3.4,0.6
	c1,0.4,2,1,2.8,1.8c0.8,0.9,1.5,1.9,1.9,3.1c0.5,1.5,0.7,3,0.7,4.5c-0.1,1.4-0.5,2.8-1.2,4c-0.8,1.7-1.9,3.6-3.4,5.9
	c-1.2,0.5-2.5,1-4.1,1.5s-3.2,1-4.9,1.4s-3.4,0.7-5.1,1c-1.5,0.2-3.1,0.4-4.6,0.4c-1.3,0-2.5-0.1-3.8-0.2c-1.2-0.1-2.5-0.3-3.6-0.7
	c-1.1-0.4-2.1-0.9-3-1.7C96.9,506.1,96.3,505,95.9,503.9z M106.1,500.6h1h1.4h1.4c0.4,0,0.7,0,1-0.1c1.8,0,3.5-0.1,5.3-0.4
	c1.7-0.2,3.3-0.5,4.8-0.8s2.8-0.6,3.9-0.9c0.9-0.3,1.8-0.6,2.7-0.9c-0.4-1.3-1.3-2.4-2.5-3c-1.3-0.7-2.8-1-4.2-1
	c-1.2,0-2.4,0.2-3.6,0.6c-1.3,0.4-2.6,0.9-3.8,1.5c-1.3,0.7-2.5,1.4-3.7,2.3C108.4,498.8,107.2,499.6,106.1,500.6L106.1,500.6z"/>
<path class="st1" d="M140.6,463.3c0,0.3,0,0.8,0,1.4s0,1.3,0.1,2.1s0,1.6,0.1,2.5s0.1,1.8,0.1,2.7c0.1,1.6,0.1,3.4,0.2,5.3
	s0.1,3.9,0.2,6s0.1,4.1,0.1,6.1s0.1,4,0.1,5.8c0,2.4-0.2,4.8-0.7,7.2c-0.5,2.3-1.1,4.6-2,6.8h-0.9c0-0.2-0.1-0.8-0.1-1.8
	s0-2.1-0.1-3.4s0-2.6,0-3.9s0-2.3,0-3.2c0-2.4-0.1-4.8-0.2-7.2s-0.3-4.8-0.5-7.1s-0.5-4.4-0.8-6.4c-0.2-1.7-0.6-3.3-1-4.9
	L140.6,463.3z"/>
<path class="st1" d="M208.7,497.1l-0.1,0.6c-0.1,0.3-0.2,0.6-0.3,0.9l-0.4,1.1l-0.4,1c-0.4,0.9-0.8,1.8-1.3,2.7c-0.5,1-1.2,2-1.8,3
	c-1.6,0.6-3.4,1.1-5.4,1.6c-2,0.5-4,0.9-6.2,1.3s-4.5,0.7-6.8,0.9s-4.7,0.3-7.1,0.3c-2.7,0.1-5.4-0.3-8-1c-1.7-0.5-3.3-1.3-4.5-2.5
	c-1-1-1.7-2.2-2-3.5c-0.3-1.3-0.5-2.7-0.5-4.1c0-1,0.1-2,0.4-3c0.2-1,0.5-2,0.9-2.9c0.3-0.9,0.7-1.8,1.1-2.6
	c0.4-0.8,0.8-1.5,1.1-2.1l1,0.5c-0.3,0.8-0.6,1.7-0.7,2.5c-0.2,0.8-0.3,1.6-0.2,2.4c0,0.9,0.2,1.9,0.7,2.7c0.6,1,1.4,1.8,2.4,2.4
	c1.4,0.8,3,1.4,4.6,1.8c2.4,0.5,4.8,0.7,7.2,0.7c2.4,0,4.7-0.1,6.9-0.3s4.3-0.4,6.2-0.7s3.6-0.6,5.1-1s2.8-0.7,3.8-1
	c-0.1-0.7-0.3-1.3-0.6-1.9c-0.3-0.7-0.6-1.3-0.9-1.9c-0.4-0.6-0.7-1.2-1.1-1.8s-0.8-1.2-1.2-1.7l4-6.8c0.7,0.9,1.3,1.9,1.8,3
	c0.5,1.1,1,2.2,1.4,3.4c0.4,1.1,0.7,2.2,0.9,3.3C208.4,495.1,208.6,496.1,208.7,497.1z M185.6,483.9l-2.9,4.4l-4.6-4l3-4.4
	L185.6,483.9z M193.7,483.4l-3,4.4l-4.6-4l3-4.4L193.7,483.4z"/>
<path class="st1" d="M224.7,508.9c-1.4,0-2.7-0.1-4.1-0.3c-1-0.2-2-0.6-2.9-1.1c-0.8-0.6-1.5-1.4-2-2.3c-0.6-1.2-1-2.4-1.2-3.7
	c-0.1-0.5-0.2-0.9-0.2-1.5s-0.1-1.1-0.1-1.6s0-1.1,0-1.5s0-0.9,0-1.2c0-3.1,0-5.9-0.1-8.4c-0.1-2.5-0.3-4.7-0.5-6.8
	s-0.5-3.8-0.8-5.4s-0.7-3.1-1-4.5l5.7-7.5c0.1,1.2,0.2,2.8,0.3,4.8s0.2,4.2,0.3,6.7s0.2,5.1,0.2,7.9s0.1,5.6,0.1,8.5
	c0,0.8,0,1.6,0,2.4s0.1,1.5,0.1,2.1c0,1.5,0.7,2.8,1.8,3.8c1.3,0.8,2.9,1.2,4.5,1.1L224.7,508.9z"/>
<path class="st1" d="M248.9,508.9c-1,0-2.1-0.2-3-0.4c-1-0.3-2-0.7-2.9-1.3c-0.9-0.6-1.7-1.3-2.4-2.2c-0.7-0.9-1.3-1.9-1.7-3h-0.6
	c-0.2,0.5-0.5,1.1-0.9,1.8s-0.7,1.3-0.9,1.7c-1.1,1-2.4,1.8-3.9,2.4c-1.5,0.6-3.2,1-4.8,0.9c-0.4,0-0.9-0.1-1.3-0.3
	c-0.4-0.2-0.8-0.5-1.1-0.9c-0.3-0.4-0.6-0.9-0.7-1.3c-0.2-0.5-0.3-1.1-0.3-1.7c0-0.6,0.1-1.2,0.3-1.7c0.2-0.5,0.4-1,0.7-1.4
	c0.3-0.4,0.7-0.7,1.1-1c0.4-0.2,0.8-0.4,1.3-0.4c1.3,0,2.7-0.2,3.9-0.6c1-0.3,1.8-0.8,2.5-1.5c0.4-0.5,0.8-0.9,1.2-1.5
	c0.4-0.6,0.7-1.2,1.1-1.9c0.3-0.6,0.6-1.2,0.9-1.8s0.4-1.1,0.6-1.4h1.1c0.3,1.1,0.8,2.2,1.4,3.3c0.6,1,1.3,2,2.1,2.8
	c0.8,0.8,1.8,1.4,2.8,1.9c1.1,0.5,2.3,0.7,3.5,0.7L248.9,508.9z M238,516.9l-3,4.4l-4.6-4l3-4.4L238,516.9z M246.1,516.4l-3,4.4
	l-4.6-4l3-4.4L246.1,516.4z"/>
<path class="st1" d="M262.1,503.9h-0.5c-0.2,0.5-0.5,1.1-0.8,1.6c-0.2,0.4-0.5,0.8-0.8,1.2c-0.5,0.5-1.2,0.9-1.8,1.2
	c-0.6,0.3-1.3,0.5-1.9,0.7c-0.7,0.1-1.4,0.2-2.1,0.3c-0.7,0-1.5,0.1-2.4,0.1c-0.5,0-1-0.1-1.4-0.3c-0.4-0.3-0.8-0.6-1-1
	c-0.6-0.9-0.9-1.9-0.9-2.9c0-0.5,0.1-1.1,0.2-1.6c0.2-0.5,0.4-1,0.7-1.4c0.3-0.4,0.6-0.7,1-1c0.4-0.3,0.9-0.4,1.4-0.4
	c1.3,0,2.7-0.1,4-0.4c1-0.1,1.9-0.5,2.7-1.1c0.7-0.6,1.4-1.4,1.9-2.2c0.5-0.8,0.9-1.6,1.2-2.5h1.2c0.1,1.5,0.7,3,1.6,4.2
	c1,1,2.3,1.6,3.7,1.8c1.7-2,3.5-3.9,5.4-5.7c1.7-1.7,3.6-3.3,5.5-4.7c1.6-1.2,3.4-2.3,5.3-3.2c1.5-0.7,3-1.1,4.7-1.2
	c1.2,0,2.3,0.2,3.4,0.6c1,0.4,2,1,2.8,1.8c0.8,0.9,1.5,1.9,1.9,3.1c0.5,1.5,0.7,3,0.7,4.5c-0.1,1.4-0.6,2.8-1.3,4
	c-0.8,1.7-2,3.6-3.4,5.9c-1.2,0.5-2.5,1-4.1,1.5s-3.2,1-4.9,1.4s-3.4,0.7-5.1,1c-1.5,0.2-3.1,0.4-4.6,0.4c-1.3,0-2.5-0.1-3.8-0.2
	c-1.2-0.1-2.4-0.3-3.6-0.7c-1.1-0.4-2.1-0.9-3-1.7C263.2,506.1,262.5,505,262.1,503.9z M280.2,475.6l-3.4,4.9l-5-4.5l3.4-4.9
	L280.2,475.6z M272.4,500.6h1h1.4h1.3c0.4,0,0.8,0,1-0.1c1.8,0,3.5-0.1,5.3-0.4c1.7-0.2,3.3-0.5,4.8-0.8s2.8-0.6,3.9-0.9
	c0.9-0.3,1.8-0.6,2.7-0.9c-0.4-1.3-1.3-2.4-2.5-3c-1.3-0.7-2.8-1-4.2-1c-1.2,0-2.4,0.2-3.6,0.6c-1.3,0.4-2.6,0.9-3.8,1.5
	c-1.3,0.7-2.5,1.4-3.7,2.3C274.7,498.8,273.5,499.7,272.4,500.6L272.4,500.6z"/>
<path class="st1" d="M313.9,508.9c-1.4,0-2.7-0.1-4.1-0.3c-1-0.2-2-0.6-2.9-1.1c-0.8-0.6-1.5-1.4-2-2.3c-0.6-1.2-1-2.4-1.2-3.7
	c-0.1-0.5-0.2-0.9-0.2-1.5s-0.1-1.1-0.1-1.6s0-1.1,0-1.5s0-0.9,0-1.2c0-3.1-0.1-5.9-0.2-8.4c-0.1-2.5-0.3-4.7-0.5-6.8
	c-0.2-2-0.5-3.8-0.8-5.4s-0.7-3.1-1-4.5l5.7-7.5c0.1,1.2,0.2,2.8,0.3,4.8s0.2,4.2,0.3,6.7s0.2,5.1,0.2,7.9s0.1,5.6,0.1,8.5
	c0,0.8,0,1.6,0,2.4s0.1,1.5,0.1,2.1c0,1.5,0.7,2.8,1.8,3.8c1.3,0.8,2.9,1.2,4.5,1.1L313.9,508.9z"/>
<path class="st1" d="M331.7,497.2c0,0.7-0.2,1.4-0.4,2c-0.3,0.9-0.7,1.7-1.1,2.6c-0.4,0.9-0.9,1.8-1.4,2.6c-0.4,0.7-0.9,1.4-1.5,2.1
	c-0.8,0.4-1.5,0.8-2.4,1.1c-0.8,0.3-1.6,0.5-2.4,0.7c-0.9,0.2-1.8,0.3-2.6,0.4c-0.9,0.1-2,0.1-3.1,0.1c-1,0.1-2-0.4-2.5-1.3
	c-0.5-1-0.8-2.1-0.7-3.2c0-0.6,0.1-1.2,0.3-1.8c0.2-0.5,0.4-0.9,0.7-1.3c0.3-0.3,0.6-0.6,1-0.8c0.4-0.2,0.8-0.3,1.2-0.3
	c2,0,4-0.1,6-0.3c1.4-0.1,2.9-0.5,4.2-1c-0.1-0.6-0.3-1.3-0.5-1.9c-0.3-0.7-0.6-1.4-1-2c-0.4-0.7-0.8-1.3-1.3-2
	c-0.4-0.6-0.9-1.2-1.2-1.7l4.2-6.7c0.6,0.8,1.2,1.7,1.7,2.7c0.5,1,1,2.1,1.4,3.2c0.4,1.1,0.8,2.2,1,3.4
	C331.6,495.1,331.7,496.2,331.7,497.2z M323.8,516.8l-2.9,4.4l-4.6-4l3-4.4L323.8,516.8z M331.9,516.3l-3,4.4l-4.6-4l3-4.4
	L331.9,516.3z"/>
<path class="st1" d="M353.1,507.2c0,2.5-0.3,4.9-1,7.3c-0.6,2.2-1.5,4.3-2.6,6.2c-0.9,1.6-2,3.1-3.4,4.3c-0.9,0.9-2.1,1.5-3.4,1.6
	c-0.6,0-1.5-0.1-2.6-0.2s-2.4-0.3-3.7-0.5s-2.7-0.4-4-0.6l-3.3-0.5v-1c2.7-0.8,5.4-1.8,8-3c2.2-1,4.3-2.2,6.4-3.6
	c1.6-1.1,3-2.4,4.2-3.8c0.9-1,1.4-2.3,1.5-3.6c-0.1-0.7-0.3-1.4-0.7-2c-0.5-0.9-1.1-1.8-1.8-2.7c-0.7-0.9-1.4-1.8-2.1-2.7
	s-1.3-1.5-1.7-2l4.2-7.3c0.9,1.2,1.7,2.3,2.5,3.5c0.7,1.2,1.4,2.3,1.9,3.6c0.5,1.1,0.9,2.3,1.2,3.5C353,505,353.1,506.1,353.1,507.2
	z"/>
<path class="st1" d="M399,508.9c-1.9,0-3.9-0.2-5.8-0.6c-1.4-0.3-2.8-0.9-4-1.8c-0.5-0.5-1-1.1-1.4-1.7c-0.5-0.8-0.9-1.7-1.1-2.7
	c-0.2,0.4-0.4,0.8-0.6,1.2c-0.2,0.4-0.4,0.8-0.7,1.2c-0.2,0.3-0.4,0.6-0.7,0.9c-0.2,0.2-0.4,0.3-0.7,0.3c-1.1,0-2.1-0.1-3.2-0.2
	c-1.2-0.1-2.4-0.4-3.5-0.7c-1-0.3-2-0.8-2.8-1.4c-0.7-0.5-1.2-1.3-1.2-2.2c0-0.2,0-0.7,0.1-1.4c0.1-0.8,0.2-1.6,0.4-2.3
	c0.2-0.8,0.4-1.7,0.7-2.5c0.2-0.7,0.6-1.3,1.1-1.9c0.7-0.7,1.4-1.4,2.1-2c0.8-0.7,1.6-1.3,2.5-2s1.8-1.2,2.6-1.8s1.7-1.1,2.4-1.6
	c0-0.3-0.1-0.7-0.1-1.1s-0.1-0.7-0.1-1l5.1-5.5c0,0.9,0.1,2,0.1,3.2s0.1,2.5,0.1,3.8s0.1,2.4,0.1,3.5s0,1.9,0,2.4c0,1,0,2,0.1,3
	c0.1,0.7,0.2,1.4,0.4,2.1c0.1,0.5,0.3,1,0.6,1.4c0.2,0.3,0.4,0.7,0.7,1c0.3,0.3,0.7,0.6,1.2,0.8c0.5,0.2,1.1,0.4,1.7,0.6
	c0.6,0.2,1.3,0.3,2,0.3c0.6,0.1,1.3,0.1,1.9,0.1L399,508.9z M384.6,497.9c0.3,0,0.5,0,0.8,0c0.2,0,0.5-0.1,0.7-0.1
	c0-0.2,0-0.4-0.1-0.7s0-0.5-0.1-0.8c0-0.5-0.1-0.9-0.1-1.4s0-1,0-1.5v-1.6c0-0.5,0-1,0-1.5c-0.8,0.5-1.6,1-2.5,1.7s-1.8,1.3-2.5,1.9
	s-1.5,1.2-2,1.6s-0.8,0.8-0.8,0.9s0.3,0.4,0.8,0.6c0.6,0.2,1.2,0.4,1.8,0.5c0.7,0.2,1.4,0.3,2.2,0.4
	C383.4,497.8,384,497.9,384.6,497.9L384.6,497.9z"/>
<path class="st1" d="M416.8,497.2c0,0.7-0.2,1.4-0.4,2c-0.3,0.9-0.7,1.7-1,2.6c-0.4,0.9-0.9,1.8-1.4,2.6c-0.4,0.7-0.9,1.4-1.5,2.1
	c-0.8,0.4-1.5,0.8-2.4,1.1c-0.8,0.3-1.6,0.5-2.4,0.7c-0.9,0.2-1.8,0.3-2.6,0.4c-0.9,0.1-2,0.1-3.1,0.1c-1,0.1-2-0.4-2.5-1.3
	c-0.5-1-0.8-2.1-0.7-3.2c0-0.6,0.1-1.2,0.3-1.8c0.2-0.5,0.4-0.9,0.7-1.3c0.3-0.3,0.6-0.6,1-0.8c0.4-0.2,0.8-0.3,1.2-0.3
	c2,0,4-0.1,6-0.3c1.4-0.1,2.9-0.5,4.2-1c-0.1-0.6-0.3-1.3-0.5-1.9c-0.3-0.7-0.6-1.4-1-2c-0.4-0.7-0.8-1.3-1.3-2
	c-0.4-0.6-0.9-1.2-1.2-1.7l4.2-6.7c0.6,0.8,1.2,1.7,1.7,2.7c0.5,1,1,2.1,1.4,3.2c0.4,1.1,0.7,2.2,1,3.4
	C416.7,495.1,416.8,496.2,416.8,497.2z M413.6,472.8l-3.4,4.9l-5-4.5l3.4-4.9L413.6,472.8z"/>
<path class="st1" d="M432.8,508.9c-1.4,0-2.7-0.1-4.1-0.3c-1-0.2-2-0.6-2.9-1.1c-0.8-0.6-1.5-1.4-2-2.3c-0.6-1.2-1-2.4-1.2-3.7
	c-0.1-0.5-0.2-0.9-0.2-1.5s-0.1-1.1-0.1-1.6s0-1.1,0-1.5s0-0.9,0-1.2c0-3.1-0.1-5.9-0.2-8.4c-0.1-2.5-0.3-4.7-0.5-6.8
	c-0.2-2-0.5-3.8-0.8-5.4s-0.7-3.1-1-4.5l5.7-7.5c0.1,1.2,0.2,2.8,0.3,4.8s0.2,4.2,0.3,6.7s0.2,5.1,0.2,7.9s0.1,5.6,0.1,8.5
	c0,0.8,0,1.6,0,2.4s0.1,1.5,0.1,2.1c0,1.5,0.7,2.8,1.8,3.8c1.3,0.8,2.9,1.2,4.5,1.1L432.8,508.9z"/>
<path class="st1" d="M470.4,501.9c-0.7,0.1-1.4,0.1-2.2,0.1s-1.5,0-2,0c-0.8,0.1-1.7,0.1-2.7,0.2c-0.8,0.1-1.6,0.2-2.5,0.4
	c-1.2,0.3-2.5,0.6-3.7,1c-1,0.3-2,0.7-3,1.2c-0.8,0.4-1.8,0.9-2.7,1.3c-1,0.5-2,0.9-3,1.2c-1.1,0.3-2.3,0.6-3.5,0.8
	c-1.1,0.2-2.2,0.3-3.3,0.4l-2.8,0.2c-0.9,0.1-2,0.1-3.3,0.1c-0.4,0-0.9-0.1-1.3-0.3c-0.4-0.2-0.8-0.5-1.1-0.9
	c-0.3-0.4-0.6-0.9-0.7-1.3c-0.2-0.5-0.3-1.1-0.3-1.7c0-0.6,0.1-1.2,0.3-1.7c0.2-0.5,0.4-1,0.7-1.4c0.3-0.4,0.7-0.7,1.1-1
	c0.4-0.2,0.8-0.4,1.3-0.4h2.6c1,0,2.1,0,3.1-0.1c0.6,0,1.2-0.1,1.9-0.2l1.9-0.2c0.6-0.1,1.2-0.2,1.8-0.3l1.5-0.3l5.3-1.2
	c1.7-0.4,3.1-0.7,4.2-0.9c-0.4-0.1-0.9-0.2-1.3-0.3c-0.5-0.2-1.1-0.4-1.7-0.6l-1.7-0.7c-0.6-0.2-1.1-0.4-1.6-0.6
	c-1.5-0.5-2.8-1-3.9-1.4c-1.2-0.4-2.4-0.6-3.7-0.6c-0.8,0-1.6,0.3-2.3,0.8c-0.8,0.6-1.6,1.4-2.3,2.2l-1-0.5c0.6-1.7,1.4-3.4,2.2-5
	c0.6-1.1,1.3-2.2,2.2-3.2c0.6-0.7,1.4-1.3,2.2-1.7c0.7-0.3,1.5-0.5,2.3-0.5c1.5,0,3,0.4,4.3,0.9c1.5,0.6,3.1,1.3,4.6,2.1
	c1.9,1,3.9,1.9,5.8,2.6c1.9,0.8,3.9,1.3,6,1.5c2.2,0.2,4.2,0.3,5.9,0.3L470.4,501.9z M453.9,472.9l-3.3,4.9l-5-4.5l3.4-4.9
	L453.9,472.9z"/>
</svg>
