<svg xmlns="http://www.w3.org/2000/svg"  viewBox="0 0 100 100" width="100px" height="100px"><path fill="#e85654" fill-rule="evenodd" d="M30.975,58.255l9.929,11.171 c0.921,1.035,0.318,2.678-1.053,2.873l-8.245,1.178c-0.457,0.066-0.919-0.054-1.287-0.33l-5.28-3.96 c-0.641-0.481-0.87-1.337-0.554-2.074l3.595-8.389C28.582,57.555,30.129,57.303,30.975,58.255z M64.748,28.847l4.946,2.473 c0.683,0.34,1.061,1.087,0.936,1.839l-1.098,6.59c-0.203,1.221-1.584,1.843-2.633,1.188l-9.283-5.803 c-1.099-0.688-1.086-2.294,0.028-2.961l5.435-3.26C63.586,28.607,64.216,28.583,64.748,28.847z M28.507,28.421 c0.651,0,1.174,0.028,1.954,0.651c0.981,0.785,37.476,26.606,44.447,31.539c0.67,0.474,0.912,1.337,0.587,2.091 c-1.047,2.433-3.26,7.613-4.208,9.83c-0.271,0.639-0.896,1.046-1.591,1.046h-5.039c-0.486,0-0.95-0.203-1.278-0.561L25.577,31.93 c-0.816-0.886-0.505-2.317,0.608-2.779C27.107,28.767,28.064,28.421,28.507,28.421z M34.791,20.518 c-0.321-0.313-0.745-0.481-1.195-0.481H18.737C17.82,20.496,17,21.027,17,22.859V34.5v3.932c0,0.269,0.063,0.535,0.184,0.776 l1.165,2.331c0.245,0.49,0.245,1.065,0,1.553L17,45.79v1.737l1.737,1.737V51l-1.228,1.228C17.183,52.554,17,52.996,17,53.456v5.509 c0,0.46,0.182,0.903,0.509,1.228l0.719,0.719c0.327,0.327,0.509,0.768,0.509,1.228v5.37c0,0.514-0.234,1.011-0.632,1.336 C16.943,69.796,17,70.317,17,71.842v7.055c0,0.775,0.525,1.454,1.268,1.671c2.852,0.83,3.314,1.395,7.416,1.395 c4.104,0,6.947,0,6.947,0c1.066,0,2.133-0.875,2.796-1.381c0.459-0.349,1.084-0.481,1.601-0.228 c0.822,0.405,1.883,1.608,3.269,1.608c1.115,0,2.89-1.737,3.842-1.737c0.604,0,2.135,1.237,2.135,1.237 c0.167,0.083,0.32,0.193,0.452,0.325l1.028,1.403c0.327,0.327,0.768,0.509,1.228,0.509h2.072c0.403,0,0.795-0.132,1.101-0.394 c0.587-0.505,1.735-1.318,3.055-1.343h8.227c0.278,0,0.547-0.063,0.794-0.193c0.478-0.25,1.369-1.028,2.079-1.374 c0.681-0.332,1.497-0.182,2.016,0.365c0.097,0.102,0.193,0.207,0.281,0.302c0.328,0.36,0.79,0.9,1.275,0.9h3.713 c0.46,0,0.903-0.182,1.228-0.509l0.485-0.716c0.459-0.459,1.127-0.627,1.747-0.429c0.564,0.179,2.35,1.271,3.818,1.61 C81.961,82.17,83,81.343,83,80.226V57.947c0-0.959-0.778-1.737-1.737-1.737h-1.737l1.228-1.228 c0.327-0.327,0.509-0.768,0.509-1.228v-5.818c0-0.269-0.063-0.535-0.184-0.776l-0.993-1.987c-0.333-0.669-0.203-1.476,0.325-2.004 l0.853-0.853v-1.737l1.228-1.228C82.818,39.025,83,38.583,83,38.123v-6.015c0-0.142-0.017-0.283-0.052-0.422l-1.447-5.785 c-0.148-0.591,0.026-1.218,0.457-1.648L83,23.211v-1.737l-1.33-1.33c-0.264-0.264-0.606-0.436-0.976-0.49l-5.485-0.804 l-1.376,0.985l-0.736-1.077C72.772,18.283,72.237,18,71.662,18h-9.504c-1.072,0-1.735,0.69-1.735,1.725 c0,0.252-0.002,1.749-1.739,1.749c-1.737,0-1.737-1.737-1.737-1.737s0-1.737-1.996-1.737H44.01c-0.584,0-1.127,0.288-1.447,0.776 c-0.67,1.023-1.865,2.697-2.501,2.697c-0.917,0-1.143,0-2.22,0C36.345,21.474,35.321,21.032,34.791,20.518z" clip-rule="evenodd"/><path fill="#1f212b" d="M51.055,84.7h-2.072c-0.731,0-1.418-0.285-1.936-0.803c-0.036-0.036-0.069-0.075-0.099-0.116 l-0.973-1.328c-0.044-0.037-0.093-0.069-0.146-0.096c-0.064-0.032-0.125-0.071-0.182-0.116c-0.593-0.479-1.348-0.965-1.585-1.021 c-0.133,0.031-0.783,0.434-1.172,0.674c-0.849,0.525-1.728,1.069-2.592,1.069c-1.291,0-2.302-0.732-3.041-1.267 c-0.256-0.185-0.498-0.359-0.67-0.445c-0.136-0.063-0.369-0.013-0.554,0.127l-0.128,0.099c-0.771,0.592-1.936,1.486-3.273,1.486 h-6.947c-3.32,0-4.414-0.365-6.069-0.919c-0.466-0.155-0.984-0.328-1.626-0.516C16.818,81.188,16,80.105,16,78.897v-7.259 c-0.003-1.421-0.004-2.359,1.471-3.567c0.165-0.134,0.266-0.348,0.266-0.561V62.14c0-0.196-0.077-0.381-0.216-0.521L16.802,60.9 C16.286,60.387,16,59.698,16,58.965v-5.509c0-0.73,0.285-1.418,0.801-1.936l0.936-0.935v-0.909l-1.444-1.443 C16.106,48.046,16,47.792,16,47.526v-1.737c0-0.155,0.036-0.309,0.105-0.447l1.35-2.697c0.104-0.206,0.103-0.452,0-0.659 l-1.165-2.329C16.101,39.279,16,38.855,16,38.433V22.859c0-2.262,1.101-3.123,2.29-3.717c0.139-0.069,0.292-0.105,0.447-0.105 h14.858c0.715,0,1.387,0.271,1.893,0.765c0.336,0.325,1.13,0.672,2.354,0.672h2.087c0.235-0.162,0.838-0.781,1.797-2.245 C42.23,17.459,43.084,17,44.01,17h10.942c2.198,0,2.996,1.637,2.996,2.737c0.022,0.736,0.56,0.736,0.737,0.736 c0.404,0,0.738-0.057,0.738-0.749c0-1.604,1.125-2.725,2.735-2.725h9.504c0.903,0,1.748,0.446,2.26,1.192l0.16,0.234l0.545-0.391 c0.211-0.15,0.473-0.211,0.727-0.176l5.484,0.804c0.587,0.087,1.118,0.354,1.538,0.771l1.331,1.331 C83.895,20.954,84,21.208,84,21.474v1.737c0,0.266-0.105,0.52-0.293,0.707l-1.042,1.042c-0.182,0.182-0.256,0.45-0.193,0.699 l1.446,5.784C83.973,31.665,84,31.888,84,32.108v6.015c0,0.729-0.284,1.417-0.801,1.935l-0.937,0.936v1.322 c0,0.265-0.105,0.52-0.293,0.707l-0.853,0.854c-0.224,0.224-0.278,0.565-0.137,0.851l0.993,1.986 c0.188,0.376,0.289,0.8,0.289,1.224v5.818c0,0.546-0.158,1.067-0.454,1.511C83.058,55.52,84,56.625,84,57.947v22.279 c0,0.839-0.376,1.619-1.033,2.142c-0.654,0.521-1.496,0.714-2.317,0.526c-1.087-0.251-2.254-0.834-3.106-1.26 c-0.3-0.149-0.672-0.335-0.788-0.372c-0.233-0.076-0.49-0.024-0.682,0.132l-0.42,0.62c-0.035,0.052-0.075,0.101-0.12,0.146 c-0.509,0.51-1.215,0.803-1.937,0.803h-3.713c-0.9,0-1.536-0.7-1.957-1.163l0.63-0.793l-0.735,0.679l-0.22-0.237 c-0.22-0.23-0.563-0.292-0.852-0.153c-0.326,0.159-0.753,0.471-1.131,0.745c-0.35,0.255-0.652,0.475-0.923,0.616 c-0.385,0.203-0.809,0.307-1.258,0.307h-8.227c-0.999,0.019-1.935,0.697-2.402,1.101C52.328,84.475,51.706,84.7,51.055,84.7z M48.506,82.525c0.133,0.113,0.3,0.175,0.476,0.175h2.072c0.174,0,0.334-0.055,0.451-0.154c0.669-0.576,2.042-1.553,3.687-1.583 h8.246c0.121,0,0.231-0.026,0.328-0.077c0.142-0.074,0.425-0.281,0.675-0.463c0.444-0.323,0.948-0.689,1.432-0.926 c1.076-0.524,2.354-0.294,3.179,0.575l0.239,0.257c0.001,0.002,0.113,0.124,0.114,0.125c0.138,0.152,0.425,0.467,0.56,0.521 l3.631-0.012c0.17,0,0.335-0.06,0.465-0.165l0.42-0.62c0.035-0.053,0.076-0.102,0.121-0.146c0.729-0.728,1.786-0.987,2.759-0.674 c0.263,0.083,0.604,0.253,1.075,0.488c0.763,0.381,1.807,0.902,2.662,1.1c0.3,0.069,0.52-0.061,0.623-0.142 C81.825,80.721,82,80.535,82,80.227V57.947c0-0.406-0.331-0.736-0.737-0.736h-1.736c-0.404,0-0.769-0.243-0.924-0.617 c-0.155-0.373-0.069-0.804,0.217-1.09l1.228-1.229c0.14-0.14,0.216-0.323,0.216-0.521v-5.818c0-0.113-0.026-0.227-0.077-0.328 l-0.994-1.988c-0.527-1.056-0.321-2.325,0.512-3.158l0.56-0.561v-1.322c0-0.266,0.105-0.52,0.293-0.707l1.229-1.228 C81.923,38.505,82,38.319,82,38.123v-6.015c0-0.061-0.008-0.12-0.022-0.183l-1.446-5.781c-0.231-0.928,0.044-1.923,0.72-2.599 L82,22.797v-0.909l-1.037-1.037c-0.112-0.112-0.257-0.185-0.416-0.208l-5.084-0.745l-1.048,0.75 c-0.219,0.156-0.493,0.221-0.756,0.171c-0.265-0.047-0.5-0.198-0.651-0.42l-0.736-1.076C72.133,19.121,71.905,19,71.662,19h-9.504 c-0.501,0-0.735,0.23-0.735,0.725c0,1.67-1.075,2.749-2.738,2.749c-2.008,0-2.737-1.637-2.737-2.736 C55.927,19.255,55.592,19,54.952,19H44.01c-0.249,0-0.477,0.121-0.61,0.324c-1.813,2.768-2.675,3.149-3.337,3.149h-2.22 c-1.595,0-2.925-0.439-3.748-1.237c-0.001-0.001-0.001-0.001-0.002-0.002c-0.132-0.129-0.304-0.197-0.497-0.197h-14.62 C18.399,21.338,18,21.662,18,22.859v15.573c0,0.113,0.027,0.227,0.078,0.328l1.167,2.331c0.383,0.769,0.383,1.684-0.001,2.448 L18,46.025v1.087l1.444,1.443c0.188,0.188,0.293,0.441,0.293,0.707V51c0,0.266-0.105,0.52-0.293,0.707l-1.228,1.228 C18.077,53.074,18,53.259,18,53.456v5.509c0,0.197,0.076,0.382,0.214,0.52l0.721,0.721c0.517,0.517,0.802,1.204,0.802,1.935v5.371 c0,0.811-0.374,1.6-1,2.11c-0.739,0.604-0.739,0.711-0.736,2.015v7.262c0,0.324,0.225,0.617,0.548,0.711 c0.671,0.195,1.213,0.376,1.701,0.539c1.522,0.509,2.44,0.815,5.436,0.815h6.947c0.659,0,1.499-0.646,2.055-1.072l0.135-0.104 c0.804-0.61,1.818-0.737,2.648-0.33c0.326,0.16,0.634,0.384,0.96,0.619c0.603,0.436,1.226,0.887,1.868,0.887 c0.295,0,1.074-0.482,1.539-0.771c0.803-0.496,1.562-0.966,2.303-0.966c0.768,0,1.87,0.745,2.687,1.396 c0.223,0.124,0.427,0.277,0.606,0.457c0.036,0.036,0.069,0.075,0.1,0.116L48.506,82.525z M69.696,74.579h-5.039 c-0.765,0-1.5-0.323-2.016-0.886l-37.8-41.087c-0.605-0.656-0.852-1.57-0.66-2.443c0.192-0.871,0.797-1.595,1.621-1.937 c1.716-0.714,2.347-0.806,2.705-0.806c0.815,0,1.571,0.065,2.578,0.87c0.63,0.502,17.229,12.279,44.4,31.504 c1.062,0.752,1.443,2.11,0.928,3.305c-0.889,2.064-2.618,6.11-3.699,8.641l-0.507,1.187C71.781,73.93,70.795,74.579,69.696,74.579z M28.509,29.421c-0.024,0.001-0.435,0.026-1.939,0.652c-0.225,0.094-0.383,0.282-0.435,0.52c-0.053,0.239,0.012,0.479,0.178,0.659 l37.802,41.089c0.14,0.151,0.337,0.238,0.542,0.238h5.039c0.295,0,0.558-0.171,0.67-0.437l0.508-1.188 c1.083-2.532,2.813-6.58,3.702-8.646c0.138-0.318,0.036-0.681-0.246-0.88C58.092,49.938,30.718,30.559,29.836,29.854 C29.296,29.421,29.032,29.421,28.509,29.421z M31.356,74.494c-0.587,0-1.157-0.188-1.636-0.548l-5.28-3.96 c-1.014-0.762-1.372-2.105-0.873-3.269l3.595-8.388c0.37-0.865,1.146-1.473,2.076-1.623c0.928-0.154,1.858,0.18,2.484,0.884 l9.929,11.171c0.671,0.754,0.872,1.812,0.524,2.761c-0.348,0.947-1.185,1.625-2.184,1.767l-8.244,1.178 C31.618,74.485,31.486,74.494,31.356,74.494z M29.679,58.672c-0.049,0-0.09,0.004-0.121,0.009c-0.12,0.02-0.415,0.102-0.558,0.437 l-3.596,8.389c-0.135,0.314-0.038,0.676,0.235,0.881l5.28,3.96c0.157,0.118,0.351,0.165,0.545,0.14l8.245-1.178 c0.394-0.056,0.542-0.351,0.588-0.475c0.045-0.125,0.123-0.446-0.141-0.743l-9.93-11.172l0,0 C30.045,58.714,29.827,58.672,29.679,58.672z M67.818,42.2c-0.504,0-1.006-0.14-1.448-0.415l-9.284-5.804 c-0.814-0.509-1.295-1.386-1.286-2.346s0.506-1.827,1.33-2.32l5.435-3.26c0.803-0.483,1.786-0.523,2.627-0.104 c0.001,0,0.002,0.001,0.003,0.001l4.947,2.474c1.08,0.538,1.674,1.702,1.475,2.897l-1.098,6.59 c-0.15,0.903-0.738,1.668-1.574,2.045C68.584,42.12,68.201,42.2,67.818,42.2z M63.973,29.666c-0.132,0-0.264,0.034-0.378,0.104 l-5.437,3.261c-0.319,0.191-0.357,0.5-0.358,0.624s0.03,0.434,0.346,0.632l9.283,5.803c0.3,0.187,0.583,0.094,0.692,0.046 c0.108-0.049,0.366-0.2,0.424-0.55l1.098-6.59c0.054-0.322-0.105-0.636-0.395-0.779l-4.946-2.474 C64.2,29.691,64.086,29.666,63.973,29.666z"/></svg>